<svg xmlns="http://www.w3.org/2000/svg" width="400" height="300">
<rect x="0" y="0" width="400" height="300" fill="none" stroke="#ccc" stroke-width="1" />
<polyline fill="none" stroke="#1f77b4" stroke-width="1.5" points="10.000000,10.000000 12.550336,29.556665 15.100671,48.155434 17.651007,65.824619 20.201342,82.592142 22.751678,98.485538 25.302013,113.531955 27.852349,127.758153 30.402685,141.190503 32.953020,153.854989 35.503356,165.777208 38.053691,176.982367 40.604027,187.495288 43.154362,197.340402 45.704698,206.541755 48.255034,215.123004 50.805369,223.107417 53.355705,230.517877 55.906040,237.376877 58.456376,243.706523 61.006711,249.528532 63.557047,254.864235 66.107383,259.734573 68.657718,264.160103 71.208054,268.160989 73.758389,271.757011 76.308725,274.967560 78.859060,277.811640 81.409396,280.307865 83.959732,282.474462 86.510067,284.329273 89.060403,285.889748 91.610738,287.172952 94.161074,288.195562 96.711409,288.973864 99.261745,289.523761 101.812081,289.860764 104.362416,290.000000 106.912752,289.956205 109.463087,289.743728 112.013423,289.376531 114.563758,288.868187 117.114094,288.231883 119.664430,287.480417 122.214765,286.626199 124.765101,285.681251 127.315436,284.657207 129.865772,283.565316 132.416107,282.416435 134.966443,281.221036 137.516779,279.989202 140.067114,278.730628 142.617450,277.454623 145.167785,276.170106 147.718121,274.885609 150.268456,273.609277 152.818792,272.348865 155.369128,271.111743 157.919463,269.904891 160.469799,268.734902 163.020134,267.607982 165.570470,266.529947 168.120805,265.506227 170.671141,264.541863 173.221477,263.641510 175.771812,262.809434 178.322148,262.049513 180.872483,261.365236 183.422819,260.759707 185.973154,260.235641 188.523490,259.795364 191.073826,259.440816 193.624161,259.173547 196.174497,258.994722 198.724832,258.905115 201.275168,258.905115 203.825503,258.994722 206.375839,259.173547 208.926174,259.440816 211.476510,259.795364 214.026846,260.235641 216.577181,260.759707 219.127517,261.365236 221.677852,262.049513 224.228188,262.809434 226.778523,263.641510 229.328859,264.541863 231.879195,265.506227 234.429530,266.529947 236.979866,267.607982 239.530201,268.734902 242.080537,269.904891 244.630872,271.111743 247.181208,272.348865 249.731544,273.609277 252.281879,274.885609 254.832215,276.170106 257.382550,277.454623 259.932886,278.730628 262.483221,279.989202 265.033557,281.221036 267.583893,282.416435 270.134228,283.565316 272.684564,284.657207 275.234899,285.681251 277.785235,286.626199 280.335570,287.480417 282.885906,288.231883 285.436242,288.868187 287.986577,289.376531 290.536913,289.743728 293.087248,289.956205 295.637584,290.000000 298.187919,289.860764 300.738255,289.523761 303.288591,288.973864 305.838926,288.195562 308.389262,287.172952 310.939597,285.889748 313.489933,284.329273 316.040268,282.474462 318.590604,280.307865 321.140940,277.811640 323.691275,274.967560 326.241611,271.757011 328.791946,268.160989 331.342282,264.160103 333.892617,259.734573 336.442953,254.864235 338.993289,249.528532 341.543624,243.706523 344.093960,237.376877 346.644295,230.517877 349.194631,223.107417 351.744966,215.123004 354.295302,206.541755 356.845638,197.340402 359.395973,187.495288 361.946309,176.982367 364.496644,165.777208 367.046980,153.854989 369.597315,141.190503 372.147651,127.758153 374.697987,113.531955 377.248322,98.485538 379.798658,82.592142 382.348993,65.824619 384.899329,48.155434 387.449664,29.556665 390.000000,10.000000" />

</svg>