<svg xmlns="http://www.w3.org/2000/svg" width="400" height="300">
<rect x="0" y="0" width="400" height="300" fill="none" stroke="#ccc" stroke-width="1" />
<polyline fill="none" stroke="#1f77b4" stroke-width="1.5" points="10.000000,290.000000 13.838384,281.685408 17.676768,273.706713 21.515152,266.056989 25.353535,258.729309 29.191919,251.716749 33.030303,245.012383 36.868687,238.609284 40.707071,232.500528 44.545455,226.679189 48.383838,221.138340 52.222222,215.871056 56.060606,210.870412 59.898990,206.129482 63.737374,201.641339 67.575758,197.399059 71.414141,193.395716 75.252525,189.624384 79.090909,186.078137 82.929293,182.750049 86.767677,179.633196 90.606061,176.720650 94.444444,174.005487 98.282828,171.480781 102.121212,169.139605 105.959596,166.975036 109.797980,164.980145 113.636364,163.148009 117.474747,161.471701 121.313131,159.944296 125.151515,158.558867 128.989899,157.308489 132.828283,156.186237 136.666667,155.185185 140.505051,154.298407 144.343434,153.518977 148.181818,152.839970 152.020202,152.254460 155.858586,151.755521 159.696970,151.336227 163.535354,150.989654 167.373737,150.708874 171.212121,150.486963 175.050505,150.316995 178.888889,150.192044 182.727273,150.105184 186.565657,150.049490 190.404040,150.018036 194.242424,150.003896 198.080808,150.000144 201.919192,149.999856 205.757576,149.996104 209.595960,149.981964 213.434343,149.950510 217.272727,149.894816 221.111111,149.807956 224.949495,149.683005 228.787879,149.513037 232.626263,149.291126 236.464646,149.010346 240.303030,148.663773 244.141414,148.244479 247.979798,147.745540 251.818182,147.160030 255.656566,146.481023 259.494949,145.701593 263.333333,144.814815 267.171717,143.813763 271.010101,142.691511 274.848485,141.441133 278.686869,140.055704 282.525253,138.528299 286.363636,136.851991 290.202020,135.019855 294.040404,133.024964 297.878788,130.860395 301.717172,128.519219 305.555556,125.994513 309.393939,123.279350 313.232323,120.366804 317.070707,117.249951 320.909091,113.921863 324.747475,110.375616 328.585859,106.604284 332.424242,102.600941 336.262626,98.358661 340.101010,93.870518 343.939394,89.129588 347.777778,84.128944 351.616162,78.861660 355.454545,73.320811 359.292929,67.499472 363.131313,61.390716 366.969697,54.987617 370.808081,48.283251 374.646465,41.270691 378.484848,33.943011 382.323232,26.293287 386.161616,18.314592 390.000000,10.000000" />

</svg>