<svg xmlns="http://www.w3.org/2000/svg" width="400" height="300">
<rect x="0" y="0" width="400" height="300" fill="none" stroke="#ccc" stroke-width="1" />
<polyline fill="none" stroke="#1f77b4" stroke-width="1.5" points="10.000000,10.000000 13.838384,21.200000 17.676768,32.171429 21.515152,42.914286 25.353535,53.428571 29.191919,63.714286 33.030303,73.771429 36.868687,83.600000 40.707071,93.200000 44.545455,102.571429 48.383838,111.714286 52.222222,120.628571 56.060606,129.314286 59.898990,137.771429 63.737374,146.000000 67.575758,154.000000 71.414141,161.771429 75.252525,169.314286 79.090909,176.628571 82.929293,183.714286 86.767677,190.571429 90.606061,197.200000 94.444444,203.600000 98.282828,209.771429 102.121212,215.714286 105.959596,221.428571 109.797980,226.914286 113.636364,232.171429 117.474747,237.200000 121.313131,242.000000 125.151515,246.571429 128.989899,250.914286 132.828283,255.028571 136.666667,258.914286 140.505051,262.571429 144.343434,266.000000 148.181818,269.200000 152.020202,272.171429 155.858586,274.914286 159.696970,277.428571 163.535354,279.714286 167.373737,281.771429 171.212121,283.600000 175.050505,285.200000 178.888889,286.571429 182.727273,287.714286 186.565657,288.628571 190.404040,289.314286 194.242424,289.771429 198.080808,290.000000 201.919192,290.000000 205.757576,289.771429 209.595960,289.314286 213.434343,288.628571 217.272727,287.714286 221.111111,286.571429 224.949495,285.200000 228.787879,283.600000 232.626263,281.771429 236.464646,279.714286 240.303030,277.428571 244.141414,274.914286 247.979798,272.171429 251.818182,269.200000 255.656566,266.000000 259.494949,262.571429 263.333333,258.914286 267.171717,255.028571 271.010101,250.914286 274.848485,246.571429 278.686869,242.000000 282.525253,237.200000 286.363636,232.171429 290.202020,226.914286 294.040404,221.428571 297.878788,215.714286 301.717172,209.771429 305.555556,203.600000 309.393939,197.200000 313.232323,190.571429 317.070707,183.714286 320.909091,176.628571 324.747475,169.314286 328.585859,161.771429 332.424242,154.000000 336.262626,146.000000 340.101010,137.771429 343.939394,129.314286 347.777778,120.628571 351.616162,111.714286 355.454545,102.571429 359.292929,93.200000 363.131313,83.600000 366.969697,73.771429 370.808081,63.714286 374.646465,53.428571 378.484848,42.914286 382.323232,32.171429 386.161616,21.200000 390.000000,10.000000" />

</svg>